<?xml version="1.0" encoding="UTF-8" standalone="no"?>
<svg
   xmlns:dc="http://purl.org/dc/elements/1.1/"
   xmlns:cc="http://creativecommons.org/ns#"
   xmlns:rdf="http://www.w3.org/1999/02/22-rdf-syntax-ns#"
   xmlns:svg="http://www.w3.org/2000/svg"
   xmlns="http://www.w3.org/2000/svg"
   xmlns:sodipodi="http://sodipodi.sourceforge.net/DTD/sodipodi-0.dtd"
   xmlns:inkscape="http://www.inkscape.org/namespaces/inkscape"
   width="995.49994"
   height="574.29999"
   viewBox="0 0 263.3927 151.95021"
   version="1.1"
   id="svg15018"
   inkscape:version="1.0 (4035a4fb49, 2020-05-01)"
   sodipodi:docname="ikalogic-blue-square.svg">
  <defs
     id="defs15012" />
  <sodipodi:namedview
     units="px"
     id="base"
     pagecolor="#ffffff"
     bordercolor="#666666"
     borderopacity="1.0"
     inkscape:pageopacity="0.0"
     inkscape:pageshadow="2"
     inkscape:zoom="0.41774915"
     inkscape:cx="514.9667"
     inkscape:cy="473.8561"
     inkscape:document-units="mm"
     inkscape:current-layer="g7397"
     inkscape:document-rotation="0"
     showgrid="false"
     fit-margin-top="0"
     fit-margin-left="0"
     fit-margin-right="0"
     fit-margin-bottom="0"
     inkscape:window-width="1920"
     inkscape:window-height="1121"
     inkscape:window-x="-9"
     inkscape:window-y="-9"
     inkscape:window-maximized="1" />
  <metadata
     id="metadata15015">
    <rdf:RDF>
      <cc:Work
         rdf:about="">
        <dc:format>image/svg+xml</dc:format>
        <dc:type
           rdf:resource="http://purl.org/dc/dcmitype/StillImage" />
        <dc:title></dc:title>
      </cc:Work>
    </rdf:RDF>
  </metadata>
  <g
     inkscape:label="Layer 1"
     inkscape:groupmode="layer"
     id="layer1"
     transform="translate(44.005876,-16.251084)">
    <g
       id="g7397"
       transform="matrix(0.26458333,0,0,0.26458333,-45.196501,229.79629)">
      <g
         id="g7377"
         style="fill:#2b3b4b;fill-opacity:1">
        <polygon
           id="polygon7373"
           points="682.2,-619.2 682,-807.1 322.3,-807.1 322.3,-619.2 383.7,-619.2 383.7,-745.7 620.8,-745.7 620.8,-619.2 "
           class="st0"
           style="fill:#2b3b4b;fill-opacity:1" />
        <polygon
           id="polygon7375"
           points="445.1,-692.4 445.1,-556.1 322.3,-556.1 322.3,-494.7 445.1,-494.7 559.5,-494.7 682,-494.7 682,-556.1 559.5,-556.1 559.5,-692.4 "
           class="st0"
           style="fill:#2b3b4b;fill-opacity:1" />
      </g>
      <g
         id="g7395"
         style="fill:#2b3b4b;fill-opacity:1">
        <path
           id="path7379"
           d="M 15.8,-376.2 H 4.5 v 135.6 c 0,4.3 3.4,7.7 7.7,7.7 h 11.3 v -135.5 c 0,-4.3 -3.4,-7.8 -7.7,-7.8 z"
           class="st0"
           style="fill:#2b3b4b;fill-opacity:1" />
        <path
           id="path7381"
           d="m 127,-317.6 60.4,-58.6 h -21.1 c -3.4,0 -6.7,1.3 -9.2,3.7 L 78,-295.6 v -73.1 c 0,-4.2 -3.4,-7.6 -7.6,-7.6 H 59 V -233 h 11.5 c 4.2,0 7.6,-3.4 7.6,-7.6 v -29.7 l 35.7,-34.6 49.3,66.6 c 2.5,3.4 6.4,5.3 10.6,5.3 h 16.2 z"
           class="st0"
           style="fill:#2b3b4b;fill-opacity:1" />
        <path
           id="path7383"
           d="m 291.6,-370.1 c -1.6,-3.7 -5.4,-6.1 -9.4,-6.1 h -6.7 c -4.1,0 -7.8,2.5 -9.4,6.2 l -58.8,137.1 H 221 c 3.8,0 7.3,-2.3 8.8,-5.9 L 279,-357 l 50.2,118.3 c 1.5,3.5 4.9,5.8 8.8,5.8 h 14.2 z"
           class="st0"
           style="fill:#2b3b4b;fill-opacity:1" />
        <path
           id="path7385"
           d="m 394,-257.5 v -108.2 c 0,-5.8 -4.7,-10.5 -10.5,-10.5 h -8.6 v 123.7 c 0,10.8 8.8,19.6 19.6,19.6 h 84.8 v -7.1 c 0,-5.8 -4.7,-10.5 -10.5,-10.5 H 401 c -3.8,0.1 -7,-3.1 -7,-7 z"
           class="st0"
           style="fill:#2b3b4b;fill-opacity:1" />
        <path
           id="path7387"
           d="m 557.8,-376.2 c -42.7,0 -66.4,35.1 -66.4,71.5 0,36.4 23.7,71.8 66.4,71.8 42.7,0 66.6,-35.1 66.6,-71.8 0,-36.6 -23.9,-71.5 -66.6,-71.5 z m 0,124.8 c -30.2,0 -46.5,-26.7 -46.5,-53.4 0,-26.5 16.4,-53.2 46.5,-53.2 30.2,0 47,26.7 47,53.4 0,26.7 -16.8,53.2 -47,53.2 z"
           class="st0"
           style="fill:#2b3b4b;fill-opacity:1" />
        <path
           id="path7389"
           d="m 783.9,-310 -0.2,-1.9 H 722 v 4.6 c 0,6.9 5.6,12.4 12.4,12.4 h 30 c -3.4,23.3 -20.9,43.3 -47,43.3 -30.2,0 -46.5,-26.7 -46.5,-53.4 0,-26.3 16.2,-53.2 46.1,-53.2 19.4,0 29.4,8.3 34,13.9 2.6,3.2 6.6,5 10.7,5 l 14.9,-0.1 -1.5,-2.8 c -11.4,-21.1 -33,-34 -58.2,-34 -42.5,0 -65.9,35.6 -65.9,71.5 0,36.6 23.7,71.8 66.6,71.8 42.7,0 66.4,-35.3 66.4,-71.8 0.1,-1.9 -0.1,-3.6 -0.1,-5.3 z"
           class="st0"
           style="fill:#2b3b4b;fill-opacity:1" />
        <path
           id="path7391"
           d="m 826.9,-376.2 h -11.4 v 135.4 c 0,4.3 3.5,7.7 7.8,7.7 h 11.3 v -135.3 c 0,-4.3 -3.4,-7.8 -7.7,-7.8 z"
           class="st0"
           style="fill:#2b3b4b;fill-opacity:1" />
        <path
           id="path7393"
           d="m 935.1,-251.4 c -30,0 -46.3,-26.9 -46.3,-53.4 0,-26.3 16.4,-53.2 46.3,-53.2 27,0 38,17.4 42.3,27.9 1.9,4.7 6.6,7.7 11.7,7.7 h 10.9 l -0.6,-2.6 c -7.3,-29.1 -30.8,-51.1 -64,-51.1 -42.7,0 -66.4,35.1 -66.4,71.5 0,36.4 23.7,71.8 66.4,71.8 33.4,0 56.7,-22.2 64,-51.5 l 0.6,-2.4 h -11.4 c -5,0 -9.5,3 -11.5,7.6 -4.7,10.4 -16.4,27.7 -42,27.7 z"
           class="st0"
           style="fill:#2b3b4b;fill-opacity:1" />
      </g>
    </g>
  </g>
</svg>
